<svg id="svg" version="1.1" xmlns="http://www.w3.org/2000/svg" xmlns:xlink="http://www.w3.org/1999/xlink" width="400" height="57.95677799607072" viewBox="0, 0, 400,57.95677799607072"><g id="svgg"><path id="path0" d="M76.583 0.111 C 75.065 0.442,71.461 3.838,70.334 6.000 C 70.214 6.229,70.065 6.454,70.002 6.500 C 69.939 6.546,69.498 7.258,69.023 8.083 C 68.548 8.908,68.090 9.696,68.005 9.833 C 67.124 11.265,63.667 19.166,63.667 19.747 C 63.667 19.875,63.600 20.022,63.518 20.072 C 63.437 20.122,63.322 20.370,63.264 20.623 C 63.205 20.876,62.888 21.833,62.559 22.750 C 61.664 25.241,61.088 26.940,60.665 28.333 C 60.456 29.021,60.227 29.733,60.156 29.917 C 60.085 30.100,59.844 30.842,59.620 31.565 L 59.213 32.879 59.120 32.065 C 59.027 31.262,58.712 28.838,58.235 25.250 C 57.798 21.969,57.520 19.799,57.177 17.000 C 56.681 12.950,56.654 12.798,56.301 12.212 C 55.511 10.898,52.964 11.358,47.725 13.759 C 47.436 13.892,47.095 14.000,46.966 14.000 C 46.838 14.000,46.662 14.061,46.575 14.137 C 46.488 14.212,45.892 14.477,45.250 14.726 C 44.206 15.131,43.992 15.297,43.216 16.298 C 42.161 17.660,41.499 18.478,41.167 18.830 C 41.029 18.975,40.696 19.392,40.425 19.755 C 40.155 20.119,39.893 20.454,39.842 20.500 C 39.791 20.546,39.299 21.143,38.750 21.827 C 38.200 22.511,37.637 23.193,37.500 23.341 C 37.362 23.490,36.950 23.975,36.583 24.418 C 36.217 24.862,35.767 25.394,35.583 25.601 C 35.400 25.808,34.875 26.409,34.417 26.937 C 33.958 27.465,33.433 28.063,33.250 28.266 C 32.870 28.687,31.309 30.449,30.100 31.823 C 29.651 32.333,28.976 33.094,28.600 33.515 C 28.224 33.935,27.729 34.499,27.500 34.767 C 27.045 35.299,25.309 37.312,24.705 38.010 C 24.496 38.250,24.221 38.590,24.093 38.765 C 23.827 39.129,24.477 35.432,25.254 32.167 C 26.007 28.997,26.168 28.329,26.406 27.375 C 26.550 26.802,26.772 25.902,26.900 25.375 C 27.028 24.848,27.294 23.817,27.491 23.083 C 27.688 22.350,27.962 21.262,28.100 20.667 C 28.412 19.322,28.678 18.242,29.252 16.000 C 29.700 14.247,29.729 13.095,29.336 12.621 C 29.243 12.509,28.743 11.854,28.224 11.167 C 27.706 10.479,27.236 9.879,27.180 9.833 C 27.124 9.787,26.630 9.232,26.081 8.599 C 23.619 5.759,17.570 1.667,15.833 1.667 C 15.724 1.667,15.397 1.559,15.109 1.427 C 14.550 1.173,13.987 1.001,12.021 0.488 C 9.834 -0.083,8.806 0.109,8.072 1.225 C 7.882 1.514,6.614 3.325,5.254 5.250 C 3.894 7.175,2.624 8.975,2.432 9.250 C 2.240 9.525,2.046 9.787,2.000 9.833 C 1.953 9.879,1.691 10.254,1.417 10.667 C 1.142 11.079,0.876 11.454,0.825 11.500 C 0.383 11.898,0.000 12.891,0.000 13.640 C -0.000 14.966,0.507 15.353,3.571 16.359 C 4.939 16.808,6.595 17.427,7.251 17.734 C 7.907 18.042,8.625 18.349,8.847 18.417 C 9.069 18.485,9.325 18.597,9.417 18.665 C 9.508 18.733,9.921 18.977,10.333 19.206 C 12.215 20.254,12.110 20.142,12.313 21.325 C 13.319 27.206,13.372 30.479,12.582 38.083 C 11.696 46.620,11.416 53.963,11.936 55.053 C 12.442 56.115,13.330 56.354,15.417 55.991 C 15.967 55.895,17.092 55.705,17.917 55.569 C 19.595 55.291,21.787 54.916,23.163 54.671 C 24.372 54.455,24.721 54.165,25.672 52.582 C 26.112 51.850,26.538 51.175,26.617 51.083 C 26.696 50.992,26.942 50.617,27.163 50.250 C 27.385 49.883,27.615 49.546,27.675 49.500 C 27.734 49.454,27.876 49.240,27.990 49.025 C 28.190 48.644,29.747 46.441,30.083 46.062 C 30.175 45.959,30.363 45.707,30.500 45.504 C 30.637 45.300,31.254 44.447,31.871 43.608 C 33.307 41.655,33.433 41.484,33.743 41.083 C 33.884 40.900,34.776 39.725,35.724 38.472 C 36.672 37.220,37.572 36.071,37.724 35.919 C 37.876 35.767,38.001 35.592,38.003 35.530 C 38.004 35.468,38.210 35.184,38.461 34.899 C 38.712 34.614,39.104 34.134,39.333 33.834 C 40.016 32.938,41.351 31.265,41.558 31.047 C 41.703 30.894,41.737 32.391,41.697 37.175 C 41.652 42.657,41.680 43.576,41.906 44.028 C 42.049 44.316,42.167 44.622,42.167 44.709 C 42.167 44.795,42.276 45.103,42.409 45.391 C 42.543 45.680,43.109 47.154,43.667 48.667 C 44.225 50.179,44.790 51.653,44.924 51.942 C 45.057 52.231,45.167 52.583,45.167 52.724 C 45.167 52.865,45.242 53.027,45.333 53.083 C 45.425 53.140,45.500 53.296,45.500 53.430 C 45.500 54.766,46.815 56.167,48.070 56.167 C 48.755 56.167,59.878 49.937,62.677 47.987 C 62.928 47.812,63.466 46.945,63.985 45.879 L 64.868 44.068 65.417 44.617 C 66.428 45.628,67.395 45.459,69.432 43.916 C 72.924 41.270,72.709 41.515,73.829 38.917 C 74.443 37.493,74.898 36.496,75.159 36.000 C 76.104 34.208,76.576 33.372,77.330 32.156 C 77.790 31.414,78.167 30.744,78.167 30.667 C 78.167 30.591,78.223 30.503,78.292 30.472 C 78.360 30.442,78.529 30.219,78.667 29.976 C 79.100 29.214,80.827 26.392,81.044 26.092 C 81.503 25.459,82.000 24.627,82.000 24.493 C 82.000 24.405,82.075 24.333,82.167 24.333 C 82.258 24.333,82.333 24.226,82.333 24.095 C 82.333 23.964,82.431 23.758,82.551 23.637 C 83.159 23.021,86.659 16.729,87.673 14.429 C 89.935 9.298,88.685 3.271,85.023 1.650 C 84.736 1.523,84.500 1.362,84.500 1.293 C 84.500 1.223,84.406 1.166,84.292 1.166 C 84.177 1.165,83.863 1.050,83.594 0.910 C 83.123 0.664,82.498 0.478,81.083 0.163 C 80.411 0.013,77.202 -0.024,76.583 0.111 M317.917 0.106 C 317.550 0.143,316.583 0.284,315.768 0.419 L 314.286 0.665 312.160 2.791 C 310.991 3.960,309.113 5.779,307.986 6.833 C 305.041 9.590,302.786 11.916,301.871 13.141 C 301.621 13.476,301.327 13.845,301.216 13.962 C 301.017 14.173,298.333 19.576,298.333 19.766 C 298.333 19.868,298.272 20.010,297.331 22.083 C 297.040 22.725,296.505 24.000,296.142 24.917 C 295.780 25.833,295.380 26.808,295.254 27.083 C 293.534 30.829,294.331 32.250,297.922 31.842 C 299.734 31.636,300.139 31.377,301.288 29.691 C 301.766 28.990,302.572 27.817,303.079 27.083 C 303.586 26.350,304.095 25.610,304.209 25.438 C 304.323 25.266,304.492 25.041,304.583 24.938 C 304.675 24.835,304.975 24.412,305.250 24.000 C 305.525 23.587,305.812 23.175,305.887 23.083 C 305.962 22.992,306.538 22.167,307.167 21.250 C 307.795 20.333,308.371 19.508,308.447 19.417 C 308.522 19.325,308.808 18.912,309.083 18.500 C 309.358 18.087,309.642 17.675,309.713 17.583 C 309.850 17.408,310.655 16.283,311.724 14.775 C 312.428 13.782,312.432 13.780,314.833 13.576 C 316.248 13.455,319.415 13.835,321.167 14.336 C 323.659 15.048,324.176 15.223,324.131 15.340 C 324.105 15.408,322.996 16.643,321.667 18.085 C 319.079 20.892,319.031 20.945,316.250 23.936 C 315.242 25.021,314.117 26.234,313.750 26.632 C 311.329 29.259,308.177 32.465,307.222 33.274 C 306.696 33.719,306.136 34.196,305.978 34.333 C 303.153 36.791,299.774 37.264,295.417 35.811 C 294.128 35.381,290.704 33.696,289.417 32.859 C 287.978 31.923,287.343 31.728,286.529 31.972 C 286.004 32.129,281.524 35.333,281.169 35.804 C 281.122 35.867,280.783 36.139,280.417 36.409 C 280.050 36.678,279.712 36.942,279.667 36.995 C 279.621 37.049,279.270 37.336,278.886 37.634 C 277.105 39.021,277.572 40.620,281.087 45.167 C 283.589 48.404,288.481 51.846,292.000 52.845 C 292.412 52.963,292.825 53.110,292.917 53.174 C 293.008 53.238,293.374 53.342,293.729 53.406 C 294.084 53.470,294.496 53.588,294.646 53.668 C 297.739 55.323,312.162 55.620,318.667 54.162 C 320.871 53.668,324.781 52.671,325.333 52.463 C 325.471 52.411,326.371 52.086,327.333 51.741 C 328.296 51.397,329.421 50.969,329.833 50.791 C 330.959 50.307,333.028 49.347,333.500 49.091 C 333.729 48.966,334.179 48.726,334.500 48.557 C 334.821 48.388,335.121 48.212,335.167 48.166 C 335.212 48.120,335.475 47.972,335.750 47.836 C 336.355 47.537,339.951 45.271,340.583 44.790 C 343.043 42.921,343.634 42.446,344.650 41.523 C 344.888 41.307,345.271 40.965,345.500 40.764 C 346.608 39.791,348.920 37.140,349.705 35.944 C 349.956 35.562,350.226 35.171,350.307 35.074 C 350.387 34.977,350.632 34.564,350.851 34.157 C 351.071 33.750,351.306 33.392,351.375 33.361 C 351.444 33.331,351.500 33.237,351.500 33.153 C 351.500 33.070,351.751 32.457,352.057 31.792 C 352.364 31.127,352.768 30.058,352.954 29.417 C 353.141 28.775,353.386 27.950,353.498 27.583 C 353.910 26.241,353.919 20.749,353.512 19.156 C 352.434 14.934,349.337 10.794,345.166 8.000 C 344.960 7.862,344.708 7.670,344.605 7.572 C 344.501 7.475,344.042 7.178,343.583 6.914 C 343.125 6.649,342.712 6.392,342.667 6.341 C 342.454 6.108,336.768 3.220,335.083 2.489 C 334.638 2.296,330.757 1.071,329.917 0.858 C 327.061 0.135,326.933 0.121,322.750 0.079 C 320.458 0.057,318.283 0.069,317.917 0.106 M376.167 0.456 C 375.938 0.614,375.712 0.783,375.667 0.831 C 375.621 0.879,375.281 1.123,374.911 1.373 C 370.666 4.250,365.934 12.303,364.848 18.500 C 364.310 21.570,364.188 25.243,364.583 26.458 C 364.676 26.743,364.641 26.833,364.436 26.833 C 364.288 26.833,364.167 26.891,364.167 26.962 C 364.167 27.032,363.829 27.275,363.417 27.500 C 363.004 27.725,362.667 27.955,362.667 28.011 C 362.667 28.067,362.476 28.200,362.244 28.306 C 362.011 28.412,361.730 28.575,361.619 28.669 C 361.508 28.763,361.229 28.986,361.000 29.165 C 349.993 37.771,350.031 49.687,361.083 54.920 C 369.675 58.988,384.881 58.943,392.917 54.826 C 394.614 53.957,396.167 52.107,396.167 50.956 C 396.167 50.905,396.420 50.313,396.730 49.640 C 397.039 48.967,397.427 48.042,397.592 47.583 C 397.756 47.125,397.940 46.675,398.001 46.583 C 398.061 46.492,398.318 45.817,398.572 45.083 C 398.826 44.350,399.139 43.514,399.267 43.225 C 399.395 42.936,399.500 42.595,399.500 42.466 C 399.500 42.338,399.583 42.150,399.685 42.049 C 400.229 41.504,400.072 39.691,399.428 39.083 C 398.431 38.143,397.579 38.231,395.619 39.474 C 394.774 40.010,393.447 40.816,392.669 41.266 C 391.890 41.716,391.103 42.174,390.919 42.285 C 390.734 42.395,390.397 42.569,390.169 42.670 C 389.941 42.772,389.529 42.959,389.253 43.087 C 387.053 44.105,385.236 44.418,381.658 44.395 C 368.590 44.311,363.461 40.008,368.490 33.346 L 368.795 32.943 370.106 33.618 C 370.827 33.989,371.717 34.382,372.083 34.491 C 372.450 34.600,372.900 34.749,373.083 34.822 C 373.587 35.021,375.122 35.461,376.305 35.746 C 377.441 36.019,380.090 36.093,380.237 35.855 C 380.286 35.775,380.559 35.663,380.844 35.606 C 381.974 35.380,383.632 33.074,385.717 28.829 C 386.818 26.588,386.263 25.142,384.210 24.901 C 380.847 24.508,378.864 23.541,376.965 21.367 C 375.385 19.561,374.571 15.541,375.273 13.021 C 375.486 12.256,377.740 12.823,381.250 14.523 C 382.075 14.923,382.775 15.306,382.806 15.375 C 382.836 15.444,382.928 15.500,383.009 15.500 C 383.144 15.500,385.139 16.794,385.333 17.008 C 385.379 17.058,385.678 17.282,385.998 17.506 C 386.317 17.729,386.701 18.026,386.850 18.164 C 386.999 18.303,387.562 18.791,388.102 19.248 C 388.642 19.705,389.608 20.580,390.250 21.192 C 392.367 23.212,394.224 22.851,394.672 20.333 C 394.923 18.924,395.253 17.043,395.504 15.588 C 395.732 14.262,395.656 10.593,395.390 10.083 C 395.294 9.900,395.074 9.450,394.901 9.083 C 392.960 4.965,388.018 1.566,382.408 0.492 C 380.589 0.143,376.650 0.121,376.167 0.456 M267.417 0.624 C 266.273 0.909,266.001 1.818,265.994 5.386 C 265.982 11.150,265.286 17.434,263.767 25.500 C 263.429 27.295,263.432 27.630,263.796 28.343 C 264.039 28.820,264.057 28.998,263.894 29.337 C 263.786 29.564,263.566 30.313,263.406 31.000 C 263.084 32.382,262.584 34.069,262.342 34.583 C 260.151 39.258,260.927 40.341,267.583 41.895 C 271.260 42.754,274.453 40.921,275.821 37.167 C 275.938 36.846,276.120 36.403,276.225 36.183 C 276.604 35.393,276.471 31.832,276.031 30.989 C 275.223 29.440,273.630 28.684,270.583 28.403 C 269.850 28.336,269.362 28.244,269.500 28.200 C 270.129 27.997,274.151 25.950,274.725 25.541 C 275.404 25.056,275.612 24.751,276.170 23.417 C 276.361 22.958,276.585 22.433,276.667 22.250 C 277.768 19.776,278.366 18.058,279.305 14.667 C 281.563 6.505,280.685 2.670,276.305 1.571 C 273.847 0.954,268.415 0.375,267.417 0.624 M165.968 0.755 C 165.919 0.803,165.288 0.953,164.565 1.088 C 163.842 1.223,162.462 1.480,161.500 1.659 C 155.885 2.703,155.841 2.714,155.314 3.303 C 154.878 3.788,154.877 3.799,154.769 7.520 C 154.709 9.571,154.616 11.764,154.562 12.392 L 154.463 13.534 153.940 13.429 C 152.948 13.229,151.042 13.122,150.453 13.232 C 149.177 13.471,144.802 17.241,142.984 19.667 C 142.538 20.262,142.113 20.825,142.040 20.917 C 141.531 21.555,140.783 23.005,140.431 24.033 L 140.015 25.250 140.007 22.865 C 139.996 19.287,139.137 17.289,136.800 15.409 C 135.785 14.592,132.793 13.695,130.578 13.544 C 129.596 13.476,129.534 13.498,127.840 14.504 C 125.677 15.788,125.729 15.771,125.604 15.273 C 125.226 13.766,123.484 13.306,121.417 14.167 C 121.233 14.243,120.071 14.623,118.833 15.010 C 117.596 15.398,116.508 15.771,116.417 15.839 C 116.325 15.906,115.987 16.016,115.667 16.083 C 115.346 16.150,115.008 16.260,114.917 16.327 C 114.825 16.394,114.375 16.548,113.917 16.670 C 112.809 16.965,112.375 17.264,112.012 17.984 C 111.608 18.787,111.822 41.953,112.239 42.590 C 112.694 43.284,113.607 43.570,114.656 43.348 C 117.450 42.754,119.324 42.469,121.417 42.318 C 123.549 42.164,124.104 42.075,124.833 41.770 C 125.039 41.684,125.085 41.846,125.095 42.690 C 125.110 44.063,125.700 44.667,127.028 44.667 C 127.813 44.667,129.580 44.037,129.833 43.667 C 129.879 43.600,130.085 43.492,130.292 43.428 C 130.498 43.364,130.667 43.241,130.667 43.155 C 130.667 43.070,130.740 43.000,130.830 43.000 C 130.919 43.000,131.651 42.560,132.455 42.021 C 133.908 41.048,135.338 40.125,137.250 38.923 C 138.781 37.962,138.879 37.768,139.019 35.425 C 139.086 34.321,139.240 32.629,139.362 31.667 L 139.583 29.917 139.681 32.833 C 139.939 40.511,140.140 41.017,143.417 42.202 C 147.943 43.840,147.983 43.833,150.246 41.004 C 150.793 40.319,151.356 39.637,151.496 39.488 C 152.004 38.948,153.808 36.907,154.125 36.513 L 154.450 36.109 154.566 39.096 C 154.760 44.094,155.057 44.342,159.750 43.431 C 160.483 43.289,161.946 43.022,163.000 42.839 C 169.287 41.746,169.157 41.879,168.525 37.167 C 167.832 32.005,167.818 19.723,168.494 9.667 C 169.011 1.977,168.980 1.585,167.804 0.985 C 167.221 0.688,166.167 0.555,165.968 0.755 M80.737 2.242 C 85.094 3.076,87.234 5.888,86.680 10.052 C 86.264 13.177,84.966 15.822,79.692 24.290 C 74.739 32.242,73.374 34.661,71.825 38.229 L 71.038 40.042 68.990 41.604 C 67.863 42.464,66.921 43.167,66.896 43.167 C 66.845 43.167,66.942 42.932,68.130 40.167 C 69.629 36.680,72.019 31.466,73.707 28.000 C 77.076 21.086,77.473 20.222,77.920 18.833 C 79.110 15.141,78.253 12.151,75.795 11.421 C 75.092 11.212,73.167 11.056,73.167 11.208 C 73.167 11.231,72.862 12.150,72.491 13.250 C 71.722 15.526,71.514 16.520,70.912 20.818 C 70.105 26.574,69.569 28.448,67.116 34.083 C 66.211 36.163,62.862 43.407,61.741 45.712 C 61.553 46.098,61.172 46.490,60.759 46.726 C 60.387 46.937,57.395 48.697,54.108 50.638 C 50.822 52.579,48.109 54.167,48.079 54.167 C 48.017 54.167,47.273 52.255,45.134 46.598 L 43.623 42.603 43.747 33.861 L 43.870 25.119 42.826 26.268 C 38.713 30.795,27.915 45.060,24.503 50.476 L 23.170 52.591 18.870 53.302 C 16.505 53.693,14.404 54.056,14.202 54.109 L 13.833 54.206 13.833 51.142 C 13.833 47.447,14.042 44.079,14.600 38.750 C 15.109 33.895,15.270 29.154,15.023 26.324 C 14.846 24.295,14.234 19.673,14.075 19.167 C 13.820 18.352,7.560 15.353,3.458 14.080 C 2.656 13.831,2.000 13.594,2.000 13.553 C 2.000 13.458,9.635 2.655,9.903 2.371 C 10.298 1.952,15.027 3.422,17.833 4.837 C 20.967 6.418,23.911 8.982,26.442 12.336 L 27.635 13.917 25.899 20.833 C 23.093 32.013,20.331 44.832,20.530 45.752 C 20.561 45.894,22.287 44.031,24.583 41.379 C 26.783 38.838,30.565 34.511,32.988 31.763 C 36.988 27.226,40.412 23.167,44.122 18.564 L 45.481 16.877 47.449 16.110 C 53.641 13.697,54.565 13.343,54.598 13.378 C 54.618 13.399,54.714 14.054,54.811 14.833 C 54.909 15.612,55.144 17.450,55.333 18.917 C 56.009 24.156,56.689 29.446,56.919 31.250 C 57.951 39.344,58.333 42.222,58.383 42.272 C 58.440 42.329,59.837 38.014,61.494 32.667 C 66.492 16.540,70.921 7.123,75.244 3.429 C 77.004 1.926,77.980 1.715,80.737 2.242 M326.293 2.259 C 338.397 4.194,349.916 12.299,351.592 20.059 C 355.672 38.956,323.563 57.885,297.147 52.156 C 289.417 50.479,283.921 46.623,280.276 40.320 L 279.835 39.557 282.043 37.806 C 285.006 35.455,286.937 34.000,287.093 34.000 C 287.163 34.000,287.903 34.404,288.736 34.898 C 295.356 38.826,300.174 39.678,304.580 37.701 C 306.985 36.621,309.842 33.958,317.760 25.417 C 326.808 15.655,327.714 14.648,327.567 14.508 C 326.916 13.893,322.307 12.345,319.873 11.925 C 316.587 11.357,311.565 11.472,311.061 12.126 C 310.403 12.983,306.074 19.107,302.669 24.000 C 300.533 27.071,298.769 29.604,298.750 29.629 C 298.668 29.735,296.500 29.930,296.500 29.831 C 296.500 29.344,300.393 20.209,301.854 17.267 C 303.149 14.661,303.958 13.728,310.291 7.550 L 315.448 2.517 317.433 2.279 C 320.192 1.948,324.287 1.939,326.293 2.259 M382.124 2.594 C 387.485 3.690,392.052 7.025,393.347 10.789 C 393.797 12.098,393.753 13.606,393.169 16.833 C 392.896 18.346,392.671 19.752,392.669 19.958 C 392.666 20.495,392.625 20.472,391.029 19.013 C 385.178 13.668,380.212 10.990,375.081 10.412 L 374.078 10.299 373.796 10.891 C 370.583 17.629,376.099 26.833,383.350 26.833 C 384.233 26.833,384.266 27.016,383.614 28.293 C 380.806 33.791,380.265 34.266,377.361 33.784 C 374.571 33.320,370.768 31.869,368.986 30.589 L 368.178 30.008 367.440 31.046 C 360.619 40.637,365.913 46.346,381.667 46.389 C 387.767 46.406,390.442 45.458,397.544 40.763 L 398.005 40.458 397.328 42.354 C 396.333 45.141,394.906 48.681,393.997 50.615 L 393.199 52.313 391.891 52.971 C 384.409 56.732,370.861 56.893,362.612 53.318 C 351.195 48.371,352.683 36.195,365.634 28.603 C 366.385 28.162,367.000 27.752,367.000 27.691 C 367.000 27.631,366.927 27.327,366.838 27.016 C 364.838 20.042,369.531 8.150,376.333 2.956 L 377.417 2.129 379.124 2.229 C 380.063 2.285,381.413 2.449,382.124 2.594 M272.833 3.022 C 277.483 3.642,278.430 4.446,278.397 7.750 C 278.362 11.198,276.072 19.166,273.917 23.332 C 273.521 24.098,265.948 27.696,265.577 27.295 C 265.553 27.270,265.712 26.350,265.928 25.250 C 267.267 18.455,267.998 11.609,267.999 5.852 L 268.000 2.621 269.792 2.738 C 270.777 2.802,272.146 2.930,272.833 3.022 M166.833 3.339 C 166.833 3.617,166.723 5.323,166.587 7.130 C 165.672 19.360,165.665 32.410,166.570 38.417 C 166.841 40.214,167.022 39.994,164.956 40.371 C 161.309 41.035,156.830 41.833,156.751 41.833 C 156.704 41.833,156.665 40.727,156.663 39.375 C 156.660 37.222,156.385 33.530,156.067 31.377 L 155.963 30.670 155.301 31.656 C 154.604 32.693,153.535 33.990,150.250 37.777 C 149.150 39.045,148.025 40.359,147.750 40.696 L 147.250 41.309 145.416 40.681 C 141.934 39.488,142.219 39.982,141.811 34.442 C 141.137 25.281,142.720 21.503,149.414 16.296 L 150.912 15.131 152.010 15.240 C 152.615 15.299,153.848 15.531,154.752 15.755 C 155.655 15.978,156.437 16.119,156.489 16.067 C 156.541 16.015,156.643 13.450,156.716 10.367 C 156.789 7.285,156.875 4.736,156.907 4.704 C 156.939 4.672,158.717 4.309,160.858 3.898 C 162.999 3.486,165.050 3.087,165.417 3.010 C 166.683 2.744,166.833 2.779,166.833 3.339 M75.599 13.571 C 76.603 14.275,76.509 17.255,75.407 19.644 C 74.578 21.443,72.288 26.000,72.214 26.000 C 72.167 26.000,72.175 25.831,72.233 25.625 C 72.341 25.242,72.662 23.222,73.087 20.250 C 73.554 16.981,73.949 15.203,74.521 13.792 C 74.727 13.284,75.084 13.211,75.599 13.571 M210.018 13.445 C 209.458 13.563,207.892 14.432,207.376 14.911 C 206.988 15.271,206.898 15.290,206.513 15.096 C 205.832 14.753,201.649 14.265,197.563 14.052 C 194.640 13.899,194.511 14.123,194.472 19.442 C 194.448 22.558,194.423 22.932,194.332 21.500 C 194.066 17.329,191.495 14.912,186.701 14.325 C 180.734 13.594,176.835 13.595,176.031 14.329 C 175.739 14.596,175.361 14.912,175.190 15.032 C 175.020 15.152,174.540 15.550,174.124 15.917 C 173.709 16.283,172.780 17.071,172.061 17.667 C 171.342 18.262,170.420 19.070,170.013 19.462 L 169.272 20.173 169.060 22.795 C 168.647 27.895,168.857 34.430,169.488 36.167 C 169.571 36.396,169.684 36.787,169.738 37.036 C 169.973 38.115,171.787 40.541,173.015 41.418 C 174.674 42.603,175.760 42.871,179.275 42.962 C 185.436 43.121,189.027 41.278,191.445 36.715 C 191.552 36.512,191.756 36.137,191.897 35.881 C 193.163 33.585,193.470 31.470,192.655 30.655 C 192.339 30.339,192.342 30.328,192.840 29.852 C 193.381 29.335,193.466 29.010,193.905 25.783 C 194.028 24.885,194.174 24.104,194.231 24.047 C 194.287 23.991,194.334 26.113,194.335 28.764 C 194.337 36.562,194.687 37.694,197.978 40.550 C 199.655 42.005,202.344 42.667,206.579 42.667 C 209.617 42.667,209.656 42.633,211.247 38.667 C 211.486 38.071,211.752 37.433,211.837 37.250 C 212.414 36.017,213.165 33.768,213.166 33.275 C 213.168 31.925,212.404 31.257,210.662 31.086 C 207.930 30.817,207.490 29.508,209.249 26.879 L 209.609 26.341 211.179 27.335 C 212.966 28.466,213.930 28.643,214.825 28.006 L 215.285 27.678 215.381 30.881 C 215.534 35.985,216.216 38.204,218.260 40.243 C 219.278 41.259,219.410 41.370,220.167 41.851 C 222.067 43.058,229.266 43.478,231.329 42.503 C 231.469 42.437,231.883 42.245,232.250 42.078 C 234.124 41.223,236.081 39.564,237.133 37.940 C 237.379 37.560,237.622 37.212,237.672 37.167 C 237.860 36.996,239.167 34.203,239.167 33.973 C 239.167 33.841,239.260 33.640,239.375 33.525 C 239.755 33.145,239.641 31.304,239.208 30.840 C 238.807 30.409,238.731 30.167,238.998 30.167 C 239.429 30.167,239.973 28.878,240.157 27.417 C 240.739 22.794,240.778 22.879,240.768 28.750 C 240.756 36.088,241.045 37.231,243.530 39.676 C 245.867 41.976,248.050 42.662,253.036 42.665 C 256.035 42.667,256.121 42.598,257.574 39.000 C 258.000 37.946,258.419 36.933,258.506 36.750 C 260.235 33.089,259.801 31.359,257.083 31.080 C 254.781 30.844,254.096 29.679,255.171 27.831 C 255.357 27.511,255.553 27.121,255.606 26.964 C 255.801 26.386,256.272 26.483,257.783 27.413 C 260.125 28.853,261.601 28.617,262.132 26.718 C 262.229 26.369,262.433 25.671,262.585 25.167 C 262.865 24.235,263.333 22.490,263.747 20.833 C 263.873 20.329,264.097 19.467,264.245 18.917 C 264.394 18.367,264.585 17.654,264.670 17.333 C 265.420 14.516,263.783 13.417,258.833 13.417 L 256.250 13.417 255.250 13.977 C 254.700 14.285,254.082 14.691,253.877 14.879 C 253.548 15.180,253.429 15.199,252.877 15.036 C 251.836 14.727,251.450 14.671,248.459 14.397 C 241.119 13.724,241.014 13.764,240.988 17.286 C 240.976 18.828,240.740 20.919,240.682 20.000 C 240.563 18.132,238.115 15.651,235.597 14.846 C 232.907 13.986,223.491 13.402,222.790 14.052 C 222.672 14.161,222.090 14.657,221.496 15.153 C 220.902 15.650,220.342 16.141,220.250 16.244 C 220.158 16.348,219.913 16.549,219.705 16.692 C 219.497 16.836,219.029 17.228,218.667 17.563 L 218.007 18.174 218.110 17.629 C 218.167 17.329,218.278 16.957,218.357 16.803 C 218.944 15.651,218.101 14.529,216.083 13.777 C 215.253 13.467,211.014 13.236,210.018 13.445 M91.733 14.458 C 89.114 16.438,84.500 21.245,84.500 21.994 C 84.500 22.074,84.444 22.164,84.375 22.194 C 84.161 22.289,83.548 23.554,83.418 24.167 C 83.350 24.488,83.241 24.825,83.174 24.917 C 82.469 25.893,82.315 32.384,82.900 36.500 C 83.036 37.462,83.231 38.840,83.331 39.561 C 83.639 41.767,83.801 41.872,89.533 43.589 C 91.327 44.126,91.717 43.849,96.778 38.443 C 97.435 37.741,97.999 37.167,98.031 37.167 C 98.063 37.167,97.989 38.271,97.866 39.620 C 97.463 44.065,98.064 44.678,101.833 43.666 C 102.888 43.383,104.650 42.928,105.750 42.655 C 106.850 42.382,107.975 42.090,108.250 42.007 C 108.525 41.923,109.113 41.803,109.557 41.739 C 110.161 41.653,110.506 41.483,110.925 41.064 L 111.485 40.504 111.408 35.044 C 111.294 26.986,111.198 24.199,110.999 23.083 C 110.825 22.109,110.750 21.880,110.201 20.667 C 109.833 19.851,108.920 18.465,108.555 18.167 C 106.965 16.868,105.910 16.243,104.833 15.963 C 103.312 15.568,102.108 15.302,100.500 15.006 C 98.305 14.601,96.306 14.214,95.333 14.007 C 93.646 13.648,92.638 13.775,91.733 14.458 M215.001 15.678 C 215.685 15.868,216.269 16.047,216.298 16.076 C 216.388 16.166,213.743 26.142,213.587 26.301 C 213.560 26.328,213.001 26.004,212.345 25.580 C 210.889 24.638,209.380 23.833,209.068 23.833 C 208.752 23.833,207.440 25.664,206.739 27.083 L 206.163 28.250 206.334 30.083 C 206.429 31.092,206.537 32.004,206.575 32.110 C 206.666 32.364,208.258 32.824,209.863 33.061 L 211.143 33.250 210.265 35.500 C 209.782 36.737,209.127 38.350,208.809 39.083 L 208.230 40.417 205.323 40.406 C 200.431 40.388,197.822 38.846,196.782 35.357 C 196.308 33.768,196.230 16.548,196.694 16.083 C 196.795 15.982,205.144 16.755,205.265 16.876 C 205.318 16.929,205.434 17.822,205.523 18.861 C 205.611 19.900,205.736 21.313,205.800 22.000 L 205.917 23.250 206.633 21.000 C 207.026 19.762,207.476 18.451,207.633 18.085 C 208.662 15.673,211.563 14.725,215.001 15.678 M261.833 15.765 C 262.425 15.970,262.742 16.172,262.728 16.333 C 262.672 16.953,260.271 25.823,260.056 26.201 C 260.019 26.266,259.485 25.995,258.869 25.598 C 257.571 24.761,255.776 23.833,255.454 23.833 C 255.199 23.833,253.308 26.621,252.900 27.598 C 252.630 28.244,252.639 29.118,252.941 31.521 L 253.037 32.291 254.310 32.634 C 255.010 32.823,256.015 33.028,256.542 33.091 C 257.069 33.154,257.500 33.271,257.500 33.351 C 257.500 33.537,256.405 36.394,255.462 38.667 L 254.736 40.417 252.660 40.466 C 246.745 40.608,243.736 38.647,242.994 34.167 C 242.771 32.820,242.906 16.371,243.142 16.128 C 243.246 16.021,249.233 16.490,251.110 16.752 C 251.908 16.864,251.890 16.801,252.096 20.167 C 252.303 23.530,252.320 23.543,253.138 20.901 C 254.291 17.181,254.894 16.301,256.787 15.579 C 257.687 15.236,260.623 15.344,261.833 15.765 M133.654 16.253 C 137.902 17.555,138.905 21.644,137.330 31.247 C 137.240 31.799,137.117 33.238,137.058 34.445 L 136.950 36.640 135.683 37.437 C 134.987 37.875,133.179 39.034,131.667 40.013 C 128.907 41.798,127.213 42.769,127.084 42.639 C 127.046 42.601,127.125 42.048,127.259 41.410 C 129.186 32.259,129.071 26.280,126.883 21.935 L 126.305 20.786 124.986 22.097 L 123.667 23.409 123.667 31.788 L 123.667 40.167 122.601 40.167 C 120.925 40.167,118.260 40.483,116.107 40.937 C 115.020 41.166,114.096 41.318,114.054 41.276 C 114.011 41.233,113.933 36.185,113.880 30.058 L 113.784 18.917 118.434 17.368 C 124.100 15.480,123.500 15.455,123.500 17.583 C 123.500 18.618,123.567 19.333,123.664 19.333 C 123.813 19.333,127.705 17.099,129.468 16.002 C 130.268 15.504,131.438 15.574,133.654 16.253 M328.991 16.708 C 323.980 25.188,315.501 34.787,307.675 40.840 C 305.949 42.176,305.428 42.667,305.736 42.667 C 305.775 42.667,306.881 42.960,308.195 43.319 C 316.448 45.573,322.935 45.600,330.750 43.413 C 337.596 41.497,341.508 38.362,342.898 33.678 C 344.367 28.726,339.226 20.779,331.765 16.468 C 329.693 15.271,329.848 15.258,328.991 16.708 M182.247 16.006 C 188.326 16.480,189.546 16.825,191.044 18.492 C 192.376 19.973,192.573 21.176,192.016 24.417 C 191.843 25.425,191.648 26.748,191.583 27.356 C 191.450 28.606,191.718 28.377,188.967 29.591 C 186.287 30.774,183.176 31.349,180.785 31.103 L 179.819 31.004 180.277 31.604 C 182.867 34.999,187.418 35.349,190.523 32.392 C 191.186 31.760,191.206 32.122,190.591 33.625 C 188.384 39.016,185.182 41.134,179.505 40.957 C 172.242 40.731,170.582 37.759,171.013 25.750 C 171.085 23.733,171.149 21.887,171.155 21.647 C 171.165 21.255,177.385 15.665,177.808 15.667 C 177.868 15.667,179.865 15.820,182.247 16.006 M229.750 16.091 C 237.582 16.683,239.468 18.439,238.520 24.255 C 238.326 25.444,238.111 26.867,238.042 27.417 L 237.917 28.417 236.500 29.111 C 233.469 30.596,229.887 31.371,227.287 31.103 C 226.092 30.980,226.144 31.165,227.696 32.570 C 230.455 35.067,233.897 35.062,236.820 32.557 L 237.557 31.926 237.443 32.504 C 237.275 33.362,236.092 35.746,235.246 36.932 C 233.184 39.821,230.669 41.003,226.590 40.997 C 218.589 40.986,216.518 36.848,217.564 22.956 L 217.699 21.162 220.891 18.417 L 224.083 15.673 225.250 15.756 C 225.892 15.801,227.917 15.952,229.750 16.091 M97.667 16.564 C 104.273 17.809,105.011 18.035,106.595 19.298 C 108.640 20.928,109.173 22.798,109.267 28.667 C 109.305 31.004,109.360 34.434,109.391 36.289 L 109.446 39.662 108.848 39.762 C 108.126 39.884,101.577 41.556,100.446 41.908 L 99.642 42.158 99.736 41.704 C 99.942 40.704,100.167 36.799,100.167 34.217 L 100.167 31.483 99.361 32.450 C 98.241 33.793,96.726 35.440,93.518 38.804 C 90.337 42.138,90.932 41.921,87.799 40.887 C 85.365 40.083,85.510 40.256,85.154 37.737 C 84.024 29.758,84.433 25.663,86.688 22.385 C 88.267 20.089,93.065 15.757,93.897 15.877 C 94.183 15.918,95.879 16.227,97.667 16.564 M332.085 19.109 C 334.651 20.818,338.500 24.631,338.500 25.463 C 338.500 25.560,338.563 25.664,338.641 25.694 C 339.214 25.920,341.172 30.644,341.163 31.776 C 341.148 33.429,339.515 36.263,337.696 37.790 C 337.176 38.226,336.712 38.621,336.667 38.667 C 336.621 38.712,336.358 38.866,336.083 39.009 C 335.808 39.151,335.283 39.428,334.917 39.623 C 333.421 40.420,331.599 41.047,328.000 42.002 C 324.058 43.048,317.463 43.281,313.833 42.503 C 313.421 42.414,312.483 42.216,311.750 42.062 C 310.084 41.712,310.019 41.652,310.728 41.112 C 311.045 40.870,311.406 40.577,311.529 40.461 C 311.652 40.345,312.278 39.805,312.918 39.262 C 313.559 38.719,315.322 37.031,316.836 35.512 C 319.337 33.003,320.210 32.046,322.250 29.576 C 322.617 29.132,323.039 28.642,323.188 28.488 C 323.338 28.333,323.782 27.767,324.177 27.228 C 324.571 26.690,324.940 26.212,324.998 26.167 C 325.457 25.800,330.333 18.767,330.333 18.470 C 330.333 18.144,331.002 18.388,332.085 19.109 M150.424 24.875 C 150.607 32.085,150.684 33.359,150.926 33.159 C 151.224 32.912,156.290 24.242,156.582 23.481 C 156.709 23.150,155.097 22.514,152.583 21.905 C 150.075 21.296,150.324 20.954,150.424 24.875 M179.929 21.861 C 179.883 22.075,179.730 23.375,179.588 24.750 C 179.447 26.125,179.293 27.536,179.246 27.886 L 179.159 28.522 181.788 28.408 C 183.234 28.345,184.487 28.228,184.572 28.149 C 184.834 27.907,184.418 24.654,184.029 23.889 C 183.200 22.266,180.166 20.765,179.929 21.861 M226.422 21.694 C 226.378 21.816,226.228 23.042,226.087 24.417 C 225.946 25.792,225.783 27.285,225.724 27.735 L 225.617 28.554 227.267 28.444 C 228.174 28.384,229.385 28.335,229.958 28.334 L 231.000 28.333 231.000 26.864 C 231.000 24.356,230.230 22.790,228.630 22.041 C 227.643 21.579,226.525 21.403,226.422 21.694 M93.500 23.318 C 93.500 24.318,94.013 33.735,94.070 33.792 C 94.261 33.984,97.425 29.791,98.944 27.333 L 99.820 25.917 99.215 25.298 C 98.409 24.473,96.743 23.619,94.958 23.118 L 93.500 22.708 93.500 23.318 M153.117 24.200 C 153.374 24.311,153.605 24.414,153.632 24.430 C 153.659 24.446,153.416 24.900,153.091 25.438 L 152.501 26.417 152.500 25.208 C 152.500 24.544,152.534 24.000,152.575 24.000 C 152.617 24.000,152.861 24.090,153.117 24.200 M182.330 25.310 C 182.584 26.226,182.549 26.333,182.000 26.333 C 181.451 26.333,181.406 26.175,181.607 24.956 C 181.733 24.194,182.065 24.357,182.330 25.310 M228.671 25.042 C 229.137 26.069,229.102 26.333,228.500 26.333 C 227.951 26.333,227.906 26.175,228.107 24.958 C 228.237 24.170,228.278 24.176,228.671 25.042 M126.048 25.792 C 126.473 27.632,126.514 28.055,126.508 30.455 C 126.501 32.683,126.393 33.884,125.932 36.833 C 125.727 38.146,125.709 37.753,125.689 31.458 C 125.677 27.723,125.694 24.667,125.727 24.667 C 125.761 24.667,125.905 25.173,126.048 25.792 M97.162 26.288 C 97.205 26.323,97.164 26.404,97.071 26.467 C 96.978 26.531,96.681 26.939,96.409 27.375 C 95.745 28.442,95.667 28.385,95.667 26.836 L 95.667 25.505 96.375 25.865 C 96.765 26.063,97.119 26.253,97.162 26.288 M271.250 30.607 C 273.965 31.034,274.615 31.728,274.466 34.045 C 274.320 36.327,272.453 39.275,270.740 39.929 C 269.628 40.354,265.857 39.542,263.634 38.399 L 263.185 38.168 263.681 36.965 C 264.362 35.315,265.448 31.876,265.592 30.918 L 265.710 30.129 267.647 30.237 C 268.712 30.296,270.333 30.463,271.250 30.607 " stroke="none" fill="#040404" fill-rule="evenodd"></path><path id="path1" d="M76.800 2.308 C 72.118 4.695,67.044 14.759,61.494 32.667 C 59.837 38.014,58.440 42.329,58.383 42.272 C 58.333 42.222,57.951 39.344,56.919 31.250 C 56.689 29.446,56.009 24.156,55.333 18.917 C 55.144 17.450,54.909 15.612,54.811 14.833 C 54.714 14.054,54.618 13.399,54.598 13.378 C 54.565 13.343,53.641 13.697,47.449 16.110 L 45.481 16.877 44.122 18.564 C 40.412 23.167,36.988 27.226,32.988 31.763 C 30.565 34.511,26.783 38.838,24.583 41.379 C 22.287 44.031,20.561 45.894,20.530 45.752 C 20.331 44.832,23.093 32.013,25.899 20.833 L 27.635 13.917 26.442 12.336 C 23.911 8.982,20.967 6.418,17.833 4.837 C 15.027 3.422,10.298 1.952,9.903 2.371 C 9.635 2.655,2.000 13.458,2.000 13.553 C 2.000 13.594,2.656 13.831,3.458 14.080 C 7.560 15.353,13.820 18.352,14.075 19.167 C 14.234 19.673,14.846 24.295,15.023 26.324 C 15.270 29.154,15.109 33.895,14.600 38.750 C 14.042 44.079,13.833 47.447,13.833 51.142 L 13.833 54.206 14.202 54.109 C 14.404 54.056,16.505 53.693,18.870 53.302 L 23.170 52.591 24.503 50.476 C 27.915 45.060,38.713 30.795,42.826 26.268 L 43.870 25.119 43.747 33.861 L 43.623 42.603 45.134 46.598 C 47.273 52.255,48.017 54.167,48.079 54.167 C 48.109 54.167,50.822 52.579,54.108 50.638 C 57.395 48.697,60.387 46.937,60.759 46.726 C 61.172 46.490,61.553 46.098,61.741 45.712 C 62.862 43.407,66.211 36.163,67.116 34.083 C 69.569 28.448,70.105 26.574,70.912 20.818 C 71.514 16.520,71.722 15.526,72.491 13.250 C 72.862 12.150,73.167 11.231,73.167 11.208 C 73.167 11.056,75.092 11.212,75.795 11.421 C 78.253 12.151,79.110 15.141,77.920 18.833 C 77.473 20.222,77.076 21.086,73.707 28.000 C 72.019 31.466,69.629 36.680,68.130 40.167 C 66.942 42.932,66.845 43.167,66.896 43.167 C 66.921 43.167,67.863 42.464,68.990 41.604 L 71.038 40.042 71.825 38.229 C 73.374 34.661,74.739 32.242,79.692 24.290 C 86.680 13.071,87.947 9.448,86.145 5.842 C 84.763 3.077,79.325 1.021,76.800 2.308 M317.433 2.279 L 315.448 2.517 310.291 7.550 C 303.958 13.728,303.149 14.661,301.854 17.267 C 300.393 20.209,296.500 29.344,296.500 29.831 C 296.500 29.930,298.668 29.735,298.750 29.629 C 298.769 29.604,300.533 27.071,302.669 24.000 C 306.074 19.107,310.403 12.983,311.061 12.126 C 311.565 11.472,316.587 11.357,319.873 11.925 C 322.307 12.345,326.916 13.893,327.567 14.508 C 327.714 14.648,326.808 15.655,317.760 25.417 C 309.842 33.958,306.985 36.621,304.580 37.701 C 300.174 39.678,295.356 38.826,288.736 34.898 C 287.903 34.404,287.163 34.000,287.093 34.000 C 286.937 34.000,285.006 35.455,282.043 37.806 L 279.835 39.557 280.276 40.320 C 282.589 44.320,286.289 47.914,289.906 49.673 C 301.124 55.131,319.312 54.075,332.500 47.202 C 352.930 36.554,358.071 19.873,344.034 9.783 C 335.673 3.773,326.512 1.189,317.433 2.279 M376.333 2.956 C 369.531 8.150,364.838 20.042,366.838 27.016 C 366.927 27.327,367.000 27.631,367.000 27.691 C 367.000 27.752,366.385 28.162,365.634 28.603 C 354.136 35.343,351.385 46.189,359.759 51.761 C 367.255 56.748,383.183 57.348,391.891 52.971 L 393.199 52.313 393.997 50.615 C 394.906 48.681,396.333 45.141,397.328 42.354 L 398.005 40.458 397.544 40.763 C 390.442 45.458,387.767 46.406,381.667 46.389 C 365.913 46.346,360.619 40.637,367.440 31.046 L 368.178 30.008 368.986 30.589 C 370.768 31.869,374.571 33.320,377.361 33.784 C 380.265 34.266,380.806 33.791,383.614 28.293 C 384.266 27.016,384.233 26.833,383.350 26.833 C 376.099 26.833,370.583 17.629,373.796 10.891 L 374.078 10.299 375.081 10.412 C 380.212 10.990,385.178 13.668,391.029 19.013 C 392.625 20.472,392.666 20.495,392.669 19.958 C 392.671 19.752,392.896 18.346,393.169 16.833 C 393.943 12.556,393.808 11.080,392.450 8.957 C 390.047 5.201,384.827 2.565,379.124 2.229 L 377.417 2.129 376.333 2.956 M267.999 5.852 C 267.998 11.609,267.267 18.455,265.928 25.250 C 265.712 26.350,265.553 27.270,265.577 27.295 C 265.948 27.696,273.521 24.098,273.917 23.332 C 276.932 17.502,279.299 7.210,278.087 5.205 C 277.218 3.768,274.867 3.069,269.792 2.738 L 268.000 2.621 267.999 5.852 M165.417 3.010 C 165.050 3.087,162.999 3.486,160.858 3.898 C 158.717 4.309,156.939 4.672,156.907 4.704 C 156.875 4.736,156.789 7.285,156.716 10.367 C 156.643 13.450,156.541 16.015,156.489 16.067 C 156.437 16.119,155.655 15.978,154.752 15.755 C 153.848 15.531,152.615 15.299,152.010 15.240 L 150.912 15.131 149.414 16.296 C 142.720 21.503,141.137 25.281,141.811 34.442 C 142.219 39.982,141.934 39.488,145.416 40.681 L 147.250 41.309 147.750 40.696 C 148.025 40.359,149.150 39.045,150.250 37.777 C 153.535 33.990,154.604 32.693,155.301 31.656 L 155.963 30.670 156.067 31.377 C 156.385 33.530,156.660 37.222,156.663 39.375 C 156.665 40.727,156.704 41.833,156.751 41.833 C 156.830 41.833,161.309 41.035,164.956 40.371 C 167.022 39.994,166.841 40.214,166.570 38.417 C 165.665 32.410,165.672 19.360,166.587 7.130 C 166.951 2.272,167.062 2.664,165.417 3.010 M209.915 15.807 C 208.211 16.614,207.844 17.194,206.633 21.000 L 205.917 23.250 205.800 22.000 C 205.736 21.313,205.611 19.900,205.523 18.861 C 205.434 17.822,205.318 16.929,205.265 16.876 C 205.144 16.755,196.795 15.982,196.694 16.083 C 196.230 16.548,196.308 33.768,196.782 35.357 C 197.822 38.846,200.431 40.388,205.323 40.406 L 208.230 40.417 208.809 39.083 C 209.127 38.350,209.782 36.737,210.265 35.500 L 211.143 33.250 209.863 33.061 C 208.258 32.824,206.666 32.364,206.575 32.110 C 206.537 32.004,206.429 31.092,206.334 30.083 L 206.163 28.250 206.739 27.083 C 207.440 25.664,208.752 23.833,209.068 23.833 C 209.380 23.833,210.889 24.638,212.345 25.580 C 213.001 26.004,213.560 26.328,213.587 26.301 C 213.743 26.142,216.388 16.166,216.298 16.076 C 215.526 15.303,211.352 15.128,209.915 15.807 M256.787 15.579 C 254.894 16.301,254.291 17.181,253.138 20.901 C 252.320 23.543,252.303 23.530,252.096 20.167 C 251.890 16.801,251.908 16.864,251.110 16.752 C 249.233 16.490,243.246 16.021,243.142 16.128 C 242.906 16.371,242.771 32.820,242.994 34.167 C 243.736 38.647,246.745 40.608,252.660 40.466 L 254.736 40.417 255.462 38.667 C 256.405 36.394,257.500 33.537,257.500 33.351 C 257.500 33.271,257.069 33.154,256.542 33.091 C 256.015 33.028,255.010 32.823,254.310 32.634 L 253.037 32.291 252.941 31.521 C 252.639 29.118,252.630 28.244,252.900 27.598 C 253.308 26.621,255.199 23.833,255.454 23.833 C 255.776 23.833,257.571 24.761,258.869 25.598 C 259.485 25.995,260.019 26.266,260.056 26.201 C 260.271 25.823,262.672 16.953,262.728 16.333 C 262.792 15.613,258.221 15.032,256.787 15.579 M129.468 16.002 C 127.705 17.099,123.813 19.333,123.664 19.333 C 123.567 19.333,123.500 18.618,123.500 17.583 C 123.500 15.455,124.100 15.480,118.434 17.368 L 113.784 18.917 113.880 30.058 C 113.933 36.185,114.011 41.233,114.054 41.276 C 114.096 41.318,115.020 41.166,116.107 40.937 C 118.260 40.483,120.925 40.167,122.601 40.167 L 123.667 40.167 123.667 31.788 L 123.667 23.409 124.986 22.097 L 126.305 20.786 126.883 21.935 C 129.071 26.280,129.186 32.259,127.259 41.410 C 127.125 42.048,127.046 42.601,127.084 42.639 C 127.213 42.769,128.907 41.798,131.667 40.013 C 133.179 39.034,134.987 37.875,135.683 37.437 L 136.950 36.640 137.058 34.445 C 137.117 33.238,137.240 31.799,137.330 31.247 C 138.298 25.344,138.211 20.602,137.103 18.875 C 135.591 16.519,131.258 14.888,129.468 16.002 M331.765 16.468 C 339.226 20.779,344.367 28.726,342.898 33.678 C 340.089 43.144,323.961 47.625,308.195 43.319 C 306.881 42.960,305.775 42.667,305.736 42.667 C 305.428 42.667,305.949 42.176,307.675 40.840 C 315.501 34.787,323.980 25.188,328.991 16.708 C 329.848 15.258,329.693 15.271,331.765 16.468 M174.433 18.439 C 171.767 20.701,171.165 21.291,171.155 21.647 C 171.149 21.887,171.085 23.733,171.013 25.750 C 170.582 37.759,172.242 40.731,179.505 40.957 C 185.182 41.134,188.384 39.016,190.591 33.625 C 191.206 32.122,191.186 31.760,190.523 32.392 C 187.418 35.349,182.867 34.999,180.277 31.604 L 179.819 31.004 180.785 31.103 C 183.176 31.349,186.287 30.774,188.967 29.591 C 191.718 28.377,191.450 28.606,191.583 27.356 C 191.648 26.748,191.843 25.425,192.016 24.417 C 192.812 19.784,191.526 17.492,187.623 16.587 C 186.865 16.411,178.980 15.672,177.808 15.667 C 177.748 15.667,176.230 16.914,174.433 18.439 M220.891 18.417 L 217.699 21.162 217.564 22.956 C 216.518 36.848,218.589 40.986,226.590 40.997 C 230.669 41.003,233.184 39.821,235.246 36.932 C 236.092 35.746,237.275 33.362,237.443 32.504 L 237.557 31.926 236.820 32.557 C 233.897 35.062,230.455 35.067,227.696 32.570 C 226.144 31.165,226.092 30.980,227.287 31.103 C 229.887 31.371,233.469 30.596,236.500 29.111 L 237.917 28.417 238.042 27.417 C 238.111 26.867,238.326 25.444,238.520 24.255 C 239.038 21.079,238.814 19.902,237.395 18.331 C 235.904 16.681,234.715 16.429,225.250 15.756 L 224.083 15.673 220.891 18.417 M91.647 17.292 C 84.613 23.350,83.578 26.609,85.154 37.737 C 85.510 40.256,85.365 40.083,87.799 40.887 C 90.932 41.921,90.337 42.138,93.518 38.804 C 96.726 35.440,98.241 33.793,99.361 32.450 L 100.167 31.483 100.167 34.217 C 100.167 36.799,99.942 40.704,99.736 41.704 L 99.642 42.158 100.446 41.908 C 101.577 41.556,108.126 39.884,108.848 39.762 L 109.446 39.662 109.391 36.289 C 109.360 34.434,109.305 31.004,109.267 28.667 C 109.160 21.994,108.343 19.954,105.116 18.308 C 104.269 17.875,97.297 16.365,93.897 15.877 C 93.437 15.811,93.174 15.976,91.647 17.292 M152.583 21.905 C 155.097 22.514,156.709 23.150,156.582 23.481 C 156.290 24.242,151.224 32.912,150.926 33.159 C 150.684 33.359,150.607 32.085,150.424 24.875 C 150.324 20.954,150.075 21.296,152.583 21.905 M181.929 21.914 C 183.516 22.567,184.300 23.873,184.549 26.283 C 184.771 28.416,184.961 28.270,181.788 28.408 L 179.159 28.522 179.246 27.886 C 179.293 27.536,179.447 26.125,179.588 24.750 C 179.949 21.236,179.873 21.450,180.715 21.588 C 181.101 21.652,181.647 21.799,181.929 21.914 M228.630 22.041 C 230.230 22.790,231.000 24.356,231.000 26.864 L 231.000 28.333 229.958 28.334 C 229.385 28.335,228.174 28.384,227.267 28.444 L 225.617 28.554 225.724 27.735 C 225.783 27.285,225.946 25.792,226.087 24.417 C 226.228 23.042,226.378 21.816,226.422 21.694 C 226.525 21.403,227.643 21.579,228.630 22.041 M97.514 24.103 C 98.117 24.419,98.883 24.957,99.215 25.298 L 99.820 25.917 98.944 27.333 C 97.425 29.791,94.261 33.984,94.070 33.792 C 94.013 33.735,93.500 24.318,93.500 23.318 L 93.500 22.708 94.958 23.118 C 95.760 23.343,96.910 23.786,97.514 24.103 M265.592 30.918 C 265.448 31.876,264.362 35.315,263.681 36.965 L 263.185 38.168 263.634 38.399 C 265.857 39.542,269.628 40.354,270.740 39.929 C 272.453 39.275,274.320 36.327,274.466 34.045 C 274.648 31.212,273.482 30.562,267.647 30.237 L 265.710 30.129 265.592 30.918 " stroke="none" fill="#f4040c" fill-rule="evenodd"></path></g></svg>